<svg xmlns="http://www.w3.org/2000/svg" viewBox="-6 -172 910 198" role="img" aria-label="afterharvest"><g fill="#2b2620" stroke="#2b2620" stroke-width="4.2" stroke-linejoin="round"><path d="M65.20-53L65.20-13.20Q65.20-7.20 67.50-4.90Q69.80-2.60 73.80-2.60L73.80-2.60L73.80 0L51.60 0L51.60-13.40Q50.20-11 48-8.60Q45.80-6.20 42.90-4.10Q40-2 36.50-0.70Q33 0.60 28.80 0.60L28.80 0.60Q22 0.60 16.70-1.30Q11.40-3.20 7.70-6.50Q4-9.80 2-14.10Q0-18.40 0-23.20L0-23.20Q0-34.60 10.30-42Q20.60-49.40 40.20-49.40L40.20-49.40L51.60-49.40L51.60-53Q51.60-66 48.10-73.40Q44.60-80.80 34.40-80.80L34.40-80.80Q31.20-80.80 28.20-79.70Q25.20-78.60 23-76.70Q20.80-74.80 19.50-72.30Q18.20-69.80 18.20-66.80L18.20-66.80Q18.20-63.40 16.40-61.80Q14.60-60.20 12.50-60.20Q10.40-60.20 8.70-61.80Q7-63.40 7.20-66.60L7.20-66.60Q7.40-70.40 10.20-73.50Q13-76.60 17.10-78.80Q21.20-81 25.80-82.20Q30.40-83.40 34.40-83.40L34.40-83.40Q49.60-83.40 57.40-75.20Q65.20-67 65.20-53L65.20-53ZM51.60-15.20L51.60-47L42-47Q36.40-47 31.30-45.40Q26.20-43.80 22.30-40.80Q18.40-37.80 16-33.30Q13.60-28.80 13.60-23.20L13.60-23.20Q13.60-19.20 14.90-15.50Q16.20-11.80 18.50-8.80Q20.80-5.80 23.90-4Q27-2.20 30.60-2.20L30.60-2.20Q34.60-2.20 40.60-5.10Q46.60-8 51.60-15.20L51.60-15.20Z"></path><path d="M103.80-78.40L103.80-11.20Q104-6.20 106.30-4.30Q108.60-2.40 113-2.40L113-2.40L113 0.20L82 0.20L82-2.40Q86.40-2.40 88.80-4.30Q91.20-6.20 91.20-11.20L91.20-11.20L91.20-19.60Q91.20-26.80 91.30-36.70Q91.40-46.60 91.40-57.80L91.40-57.80L91.40-78.40L82-78.40L82-81.80L91.40-81.80L91.40-99.20Q91.40-106.60 93-113.10Q94.60-119.60 98.50-124.50Q102.40-129.40 108.80-132.20Q115.20-135 125-135L125-135Q132.80-135 138.40-132.70Q144-130.40 147.50-126.70Q151-123 152.70-118.50Q154.40-114 154.40-109.60L154.40-109.60Q154.40-107.40 152.80-105.70Q151.20-104 149-104L149-104Q146.80-104 145.20-105.40Q143.60-106.80 143.60-109.60L143.60-109.60Q143.60-120.20 137.90-126.40Q132.20-132.60 123.40-132.60L123.40-132.60Q117.80-132.60 114-130.20Q110.20-127.80 108-123.70Q105.80-119.60 104.80-114.10Q103.80-108.60 103.80-102.20L103.80-102.20L103.80-81.80L127-81.80L127-78.40L103.80-78.40Z"></path><path d="M168-3.20L168-3.20Q171.80-3.20 174.30-4.20Q176.80-5.20 178.40-6.90Q180-8.60 180.90-10.60Q181.80-12.60 182.40-14.40L182.40-14.40L183-14.40Q182.40-11.80 181.20-9.10Q180-6.40 178-4.20Q176-2 173-0.60Q170 0.80 165.60 0.80L165.60 0.80Q153.80 0.80 149.10-5.90Q144.40-12.60 144.40-23.60L144.40-23.60L144.40-79.20L135.20-79.20Q138.40-81.40 141.50-84.40Q144.60-87.40 147.50-90.70Q150.40-94 152.80-97.30Q155.20-100.60 156.80-103.40L156.80-103.40L156.80-82.60L166.60-82.60L166.60-79.20L156.80-79.20L156.80-23.20Q156.80-19 157.30-15.40Q157.80-11.80 159.10-9.10Q160.40-6.40 162.50-4.80Q164.60-3.20 168-3.20Z"></path><path d="M269.20-25.80L270-25.80Q268.20-19.80 264.30-14.90Q260.40-10 255.20-6.50Q250-3 243.90-1.20Q237.80 0.60 231.20 0.60L231.20 0.60Q222.60 0.60 214.80-2.70Q207-6 201.10-11.80Q195.20-17.60 191.70-25.20Q188.20-32.80 188.20-41.60L188.20-41.60Q188.20-50.20 191.20-57.80Q194.20-65.40 199.60-71.10Q205-76.80 212.30-80.10Q219.60-83.40 228.20-83.40L228.20-83.40Q239.60-83.40 247.40-79.30Q255.20-75.20 260-69.30Q264.80-63.40 266.90-56.80Q269-50.20 269-45L269-45L202-45Q202-44 201.90-43.30Q201.80-42.60 201.80-41.60L201.80-41.60Q201.80-33.40 204.60-26.50Q207.40-19.60 212.10-14.60Q216.80-9.60 222.90-6.80Q229-4 235.40-4L235.40-4Q240.20-4 245.20-5.20Q250.20-6.40 254.80-9.10Q259.40-11.80 263.20-15.90Q267-20 269.20-25.80L269.20-25.80ZM230-81L230-81Q224.80-81 220.20-78.50Q215.60-76 211.90-71.60Q208.20-67.20 205.70-61.20Q203.20-55.20 202.40-48.40L202.40-48.40L257-48.40Q256.40-52.60 254.60-58.20Q252.80-63.80 249.60-68.90Q246.40-74 241.60-77.50Q236.80-81 230-81Z"></path><path d="M322.60-81.40L322.60-81.40Q326-81.40 329.50-80.20Q333-79 335.90-77Q338.80-75 340.60-72.30Q342.40-69.60 342.40-66.60L342.40-66.60Q342.40-64 340.90-62.50Q339.40-61 337.50-61Q335.60-61 333.90-62.40Q332.20-63.80 331.60-66.80L331.60-66.80Q331-70.20 327.30-72.70Q323.60-75.20 319-75.20L319-75.20Q314.20-75.20 310.80-72.60Q307.40-70 304.90-66.10Q302.40-62.20 300.80-57.30Q299.20-52.40 298-48L298-48L298-11.20Q298.20-6 300.50-4.10Q302.80-2.20 307.20-2.20L307.20-2.20L307.20 0.20L276.20 0.20L276.20-2.20Q280.60-2.20 283-4.10Q285.40-6 285.40-11.20L285.40-11.20L285.40-69Q285.20-70.80 284.40-72.20L284.40-72.20Q283.60-73.40 281.90-74.40Q280.20-75.40 277-75.40L277-75.40L276.40-77.80L295.40-82.60L298-82.60L298-54.40Q299.20-58.60 301.10-63.30Q303-68 305.90-72.10Q308.80-76.20 312.90-78.80Q317-81.40 322.60-81.40Z"></path><g transform="translate(347 0)" fill="#2b2620"><path d="M75.80-11.40L75.80-11.40Q75.80-6.20 78.20-4.40Q80.60-2.60 85-2.60L85-2.60L85 0L54 0L54-2.60Q58.40-2.60 60.80-4.40Q63.20-6.20 63.20-11.40L63.20-11.40L63.20-59Q63.20-63.20 61.70-66.60Q60.20-70 57.60-72.60Q55-75.20 51.80-76.60Q48.60-78 45.40-78L45.40-78Q40.60-78 36.80-76.40Q33-74.80 30.20-72.30Q27.40-69.80 25.30-66.80Q23.20-63.80 21.80-60.80L21.80-60.80L21.80-11.40Q22-6.20 24.30-4.40Q26.60-2.60 31-2.60L31-2.60L31 0L0 0L0-2.60Q4.40-2.60 6.80-4.40Q9.20-6.20 9.20-11.40L9.20-11.40L9.20-134 C 10.5 -143 13 -149 16 -152 C 19 -149 20.5 -143 21.80-134 L21.80-64.60Q23.20-67.80 25.50-71.10Q27.80-74.40 30.90-77.10Q34-79.80 38-81.60Q42-83.40 46.80-83.40L46.80-83.40Q60.40-83.40 68.10-76.50Q75.80-69.60 75.80-58.40L75.80-58.40L75.80-11.40Z"></path><path d="M17 -148 C 23.553603588403984 -145.5835811608791 31.78319820579801 -152.64820941956046 38 -152 C 30.77279282319203 -157.95283767824182 21.532792823192036 -156.19283767824183 17 -148 Z"></path><path d="M13 -146 C 11.72710325571113 -153.3813097671334 6.5419715855161815 -155.42591475654854 1 -150 C 5.02407830863536 -150.87223492590607 8.691316701949487 -144.27395010584846 13 -146 Z"></path><path d="M16 -151 C 21.00057000058133 -154.50985749985466 21.59639900040693 -161.84090024989828 20 -167 C 18.103885999883733 -162.71402850002906 14.01554399953494 -156.25611400011627 16 -151 Z"></path></g><path d="M504-53L504-13.20Q504-7.20 506.30-4.90Q508.60-2.60 512.60-2.60L512.60-2.60L512.60 0L490.40 0L490.40-13.40Q489-11 486.80-8.60Q484.60-6.20 481.70-4.10Q478.80-2 475.30-0.70Q471.80 0.60 467.60 0.60L467.60 0.60Q460.80 0.60 455.50-1.30Q450.20-3.20 446.50-6.50Q442.80-9.80 440.80-14.10Q438.80-18.40 438.80-23.20L438.80-23.20Q438.80-34.60 449.10-42Q459.40-49.40 479-49.40L479-49.40L490.40-49.40L490.40-53Q490.40-66 486.90-73.40Q483.40-80.80 473.20-80.80L473.20-80.80Q470-80.80 467-79.70Q464-78.60 461.80-76.70Q459.60-74.80 458.30-72.30Q457-69.80 457-66.80L457-66.80Q457-63.40 455.20-61.80Q453.40-60.20 451.30-60.20Q449.20-60.20 447.50-61.80Q445.80-63.40 446-66.60L446-66.60Q446.20-70.40 449-73.50Q451.80-76.60 455.90-78.80Q460-81 464.60-82.20Q469.20-83.40 473.20-83.40L473.20-83.40Q488.40-83.40 496.20-75.20Q504-67 504-53L504-53ZM490.40-15.20L490.40-47L480.80-47Q475.20-47 470.10-45.40Q465-43.80 461.10-40.80Q457.20-37.80 454.80-33.30Q452.40-28.80 452.40-23.20L452.40-23.20Q452.40-19.20 453.70-15.50Q455-11.80 457.30-8.80Q459.60-5.80 462.70-4Q465.80-2.20 469.40-2.20L469.40-2.20Q473.40-2.20 479.40-5.10Q485.40-8 490.40-15.20L490.40-15.20Z"></path><path d="M567.20-81.40L567.20-81.40Q570.60-81.40 574.10-80.20Q577.60-79 580.50-77Q583.40-75 585.20-72.30Q587-69.60 587-66.60L587-66.60Q587-64 585.50-62.50Q584-61 582.10-61Q580.20-61 578.50-62.40Q576.80-63.80 576.20-66.80L576.20-66.80Q575.60-70.20 571.90-72.70Q568.20-75.20 563.60-75.20L563.60-75.20Q558.80-75.20 555.40-72.60Q552-70 549.50-66.10Q547-62.20 545.40-57.30Q543.80-52.40 542.60-48L542.60-48L542.60-11.20Q542.80-6 545.10-4.10Q547.40-2.20 551.80-2.20L551.80-2.20L551.80 0.20L520.80 0.20L520.80-2.20Q525.20-2.20 527.60-4.10Q530-6 530-11.20L530-11.20L530-69Q529.80-70.80 529-72.20L529-72.20Q528.20-73.40 526.50-74.40Q524.80-75.40 521.60-75.40L521.60-75.40L521-77.80L540-82.60L542.60-82.60L542.60-54.40Q543.80-58.60 545.70-63.30Q547.60-68 550.50-72.10Q553.40-76.20 557.50-78.80Q561.60-81.40 567.20-81.40Z"></path><path d="M657.80-80.20L657.80-82.60L679.20-82.60L679.20-80.20Q674.80-80.20 671.80-78.30Q668.80-76.40 666.80-71.20L666.80-71.20Q666.40-69.80 665.00-66Q663.60-62.20 661.80-57Q660.00-51.80 657.80-45.50Q655.60-39.20 653.40-32.80L653.40-32.80Q648.20-17.80 642.00 0.20L642.00 0.20L628.80 0.20Q622.40-17.80 617.20-32.80L617.20-32.80Q615.00-39.20 612.80-45.50Q610.60-51.80 608.80-57Q607.00-62.20 605.70-66Q604.40-69.80 604.00-71.20L604.00-71.20Q602.00-76.40 599.00-78.30Q596.00-80.20 591.60-80.20L591.60-80.20L591.60-82.60L623.40-82.60L623.40-80.20Q619.00-80.20 617.30-78.30Q615.60-76.40 617.20-71.20L617.20-71.20Q617.40-70.40 618.90-66.10Q620.40-61.80 622.60-55.50Q624.80-49.20 627.40-41.60Q630.00-34 632.50-26.80Q635.00-19.60 637.20-13.40Q639.40-7.20 640.60-3.60L640.60-3.60Q641.80-7.20 644.00-13.40Q646.20-19.60 648.70-26.80Q651.20-34 653.80-41.60Q656.40-49.20 658.60-55.50Q660.80-61.80 662.30-66.10Q663.80-70.40 664.00-71.20L664.00-71.20Q665.60-76.40 663.90-78.30Q662.20-80.20 657.80-80.20L657.80-80.20Z"></path><path d="M765.20-25.80L766-25.80Q764.20-19.80 760.30-14.90Q756.40-10 751.20-6.50Q746.00-3 739.90-1.20Q733.80 0.60 727.20 0.60L727.20 0.60Q718.60 0.60 710.80-2.70Q703.00-6 697.10-11.80Q691.20-17.60 687.70-25.20Q684.20-32.80 684.20-41.60L684.20-41.60Q684.20-50.20 687.20-57.80Q690.20-65.40 695.60-71.10Q701.00-76.80 708.30-80.10Q715.60-83.40 724.20-83.40L724.20-83.40Q735.60-83.40 743.40-79.30Q751.20-75.20 756.00-69.30Q760.80-63.40 762.90-56.80Q765-50.20 765-45L765-45L698.00-45Q698.00-44 697.90-43.30Q697.80-42.60 697.80-41.60L697.80-41.60Q697.80-33.40 700.60-26.50Q703.40-19.60 708.10-14.60Q712.80-9.60 718.90-6.80Q725.00-4 731.40-4L731.40-4Q736.20-4 741.20-5.20Q746.20-6.40 750.80-9.10Q755.40-11.80 759.20-15.90Q763-20 765.20-25.80L765.20-25.80ZM726.00-81L726.00-81Q720.80-81 716.20-78.50Q711.60-76 707.90-71.60Q704.20-67.20 701.70-61.20Q699.20-55.20 698.40-48.40L698.40-48.40L753.00-48.40Q752.40-52.60 750.60-58.20Q748.80-63.80 745.60-68.90Q742.40-74 737.60-77.50Q732.80-81 726.00-81Z"></path><path d="M785.60-64.40L785.60-64.40Q785.60-58.60 789.60-54.90Q793.60-51.20 799.70-48.50Q805.80-45.80 812.90-43.60Q820.00-41.40 826.10-38.50Q832.20-35.60 836.20-31.40Q840.20-27.20 840.20-20.80L840.20-20.80Q840.20-15 837.70-10.90Q835.20-6.80 830.90-4.20Q826.60-1.60 820.50-0.40Q814.40 0.80 807.20 0.80L807.20 0.80Q799.40 0.80 793.00-1.20Q786.60-3.20 782.00-6.20Q777.40-9.20 774.80-12.80Q772.20-16.40 772.20-19.80L772.20-19.80Q772.20-22.80 773.80-24.40Q775.40-26 777.40-26L777.40-26Q779.60-26.20 781.40-24.50Q783.20-22.80 783.20-19.40L783.20-19.40Q783.20-15.80 784.50-12.60Q785.80-9.40 788.80-6.90Q791.80-4.40 796.70-3Q801.60-1.60 808.80-1.60L808.80-1.60Q814.40-1.60 818.40-3Q822.40-4.40 825.10-6.60Q827.80-8.80 829.10-11.50Q830.40-14.20 830.40-17L830.40-17Q830.40-22.80 826.30-26.30Q822.20-29.80 815.90-32.20Q809.60-34.60 802.40-36.60Q795.20-38.60 788.90-41.30Q782.60-44 778.50-48Q774.40-52 774.40-58.80L774.40-58.80Q774.40-64.80 777.00-69.30Q779.60-73.80 784.10-76.80Q788.60-79.80 794.30-81.30Q800.00-82.80 806.40-82.80L806.40-82.80Q811.20-82.80 816.80-81.60Q822.40-80.40 827.20-78.20Q832.00-76 835.10-72.90Q838.20-69.80 838.20-66L838.20-66Q838.20-62.80 836.50-61.10Q834.80-59.40 832.70-59.40Q830.60-59.40 828.90-61.10Q827.20-62.80 827.20-66.20L827.20-66.20Q827.20-69 825.30-71.60Q823.40-74.20 820.40-76.10Q817.40-78 813.70-79.10Q810.00-80.20 806.40-80.20L806.40-80.20Q796.20-80.20 790.90-75.60Q785.60-71 785.60-64.40Z"></path><path d="M877.40-3.20L877.40-3.20Q881.20-3.20 883.70-4.20Q886.20-5.20 887.80-6.90Q889.40-8.60 890.30-10.60Q891.20-12.60 891.80-14.40L891.80-14.40L892.40-14.40Q891.80-11.80 890.60-9.10Q889.40-6.40 887.40-4.20Q885.40-2 882.40-0.60Q879.40 0.80 875.00 0.80L875.00 0.80Q863.20 0.80 858.50-5.90Q853.80-12.60 853.80-23.60L853.80-23.60L853.80-79.20L844.60-79.20Q847.80-81.40 850.90-84.40Q854.00-87.40 856.90-90.70Q859.80-94 862.20-97.30Q864.60-100.60 866.20-103.40L866.20-103.40L866.20-82.60L876.00-82.60L876.00-79.20L866.20-79.20L866.20-23.20Q866.20-19 866.70-15.40Q867.20-11.80 868.50-9.10Q869.80-6.40 871.90-4.80Q874.00-3.20 877.40-3.20Z"></path></g></svg>