<svg xmlns="http://www.w3.org/2000/svg" width="200" height="200" viewBox="0 0 200 200"><ellipse cx="39.7" cy="170.2" rx="0.84" ry="2.00" fill="rgb(200,155,75)" fill-opacity="0.068" transform="rotate(130 39.7 170.2)"></ellipse><ellipse cx="183.9" cy="26.2" rx="1.67" ry="1.79" fill="rgb(176,106,74)" fill-opacity="0.105" transform="rotate(106 183.9 26.2)"></ellipse><ellipse cx="57.4" cy="146.1" rx="1.69" ry="1.22" fill="rgb(38,33,25)" fill-opacity="0.067" transform="rotate(96 57.4 146.1)"></ellipse><ellipse cx="91.1" cy="174.7" rx="0.92" ry="1.75" fill="rgb(110,101,84)" fill-opacity="0.113" transform="rotate(60 91.1 174.7)"></ellipse><ellipse cx="40.9" cy="105.3" rx="1.44" ry="0.73" fill="rgb(200,155,75)" fill-opacity="0.065" transform="rotate(150 40.9 105.3)"></ellipse><ellipse cx="13.7" cy="97.8" rx="1.13" ry="1.72" fill="rgb(200,155,75)" fill-opacity="0.106" transform="rotate(53 13.7 97.8)"></ellipse><ellipse cx="113.6" cy="32.0" rx="1.48" ry="1.15" fill="rgb(38,33,25)" fill-opacity="0.057" transform="rotate(97 113.6 32.0)"></ellipse><ellipse cx="122.7" cy="106.7" rx="1.72" ry="1.44" fill="rgb(38,33,25)" fill-opacity="0.057" transform="rotate(32 122.7 106.7)"></ellipse><ellipse cx="128.2" cy="110.6" rx="1.72" ry="2.27" fill="rgb(110,101,84)" fill-opacity="0.104" transform="rotate(165 128.2 110.6)"></ellipse><ellipse cx="19.0" cy="133.2" rx="1.69" ry="2.26" fill="rgb(38,33,25)" fill-opacity="0.065" transform="rotate(132 19.0 133.2)"></ellipse><ellipse cx="46.5" cy="137.2" rx="2.23" ry="0.81" fill="rgb(200,155,75)" fill-opacity="0.097" transform="rotate(169 46.5 137.2)"></ellipse><ellipse cx="69.2" cy="153.8" rx="1.15" ry="1.82" fill="rgb(110,101,84)" fill-opacity="0.095" transform="rotate(154 69.2 153.8)"></ellipse><ellipse cx="111.4" cy="64.0" rx="1.51" ry="1.08" fill="rgb(110,101,84)" fill-opacity="0.109" transform="rotate(88 111.4 64.0)"></ellipse><ellipse cx="138.5" cy="114.3" rx="2.20" ry="2.03" fill="rgb(110,101,84)" fill-opacity="0.096" transform="rotate(6 138.5 114.3)"></ellipse><ellipse cx="137.1" cy="39.6" rx="1.05" ry="2.12" fill="rgb(110,101,84)" fill-opacity="0.088" transform="rotate(116 137.1 39.6)"></ellipse><ellipse cx="18.2" cy="38.4" rx="0.79" ry="0.90" fill="rgb(176,106,74)" fill-opacity="0.099" transform="rotate(34 18.2 38.4)"></ellipse><ellipse cx="29.3" cy="171.1" rx="1.77" ry="2.02" fill="rgb(38,33,25)" fill-opacity="0.055" transform="rotate(68 29.3 171.1)"></ellipse><ellipse cx="190.6" cy="165.6" rx="1.42" ry="1.03" fill="rgb(38,33,25)" fill-opacity="0.039" transform="rotate(166 190.6 165.6)"></ellipse><ellipse cx="71.8" cy="69.1" rx="2.13" ry="1.34" fill="rgb(38,33,25)" fill-opacity="0.063" transform="rotate(75 71.8 69.1)"></ellipse><ellipse cx="110.5" cy="165.3" rx="0.72" ry="0.61" fill="rgb(38,33,25)" fill-opacity="0.069" transform="rotate(170 110.5 165.3)"></ellipse><ellipse cx="165.6" cy="176.7" rx="1.92" ry="2.08" fill="rgb(176,106,74)" fill-opacity="0.098" transform="rotate(64 165.6 176.7)"></ellipse><ellipse cx="32.7" cy="79.7" rx="1.55" ry="1.49" fill="rgb(110,101,84)" fill-opacity="0.091" transform="rotate(160 32.7 79.7)"></ellipse><ellipse cx="23.0" cy="144.3" rx="1.29" ry="1.73" fill="rgb(110,101,84)" fill-opacity="0.077" transform="rotate(113 23.0 144.3)"></ellipse><ellipse cx="132.5" cy="63.1" rx="2.12" ry="0.78" fill="rgb(200,155,75)" fill-opacity="0.055" transform="rotate(99 132.5 63.1)"></ellipse><ellipse cx="26.2" cy="33.7" rx="1.49" ry="2.19" fill="rgb(110,101,84)" fill-opacity="0.088" transform="rotate(83 26.2 33.7)"></ellipse><ellipse cx="49.3" cy="155.6" rx="2.21" ry="1.40" fill="rgb(200,155,75)" fill-opacity="0.061" transform="rotate(163 49.3 155.6)"></ellipse></svg>